<svg _ngcontent-ng-c628045383="" xmlns="http://www.w3.org/2000/svg" width="23.88" height="23.88" viewBox="0 0 23.88 23.88"><g _ngcontent-ng-c628045383="" id="Group_2" data-name="Group 2" transform="translate(-472.869 -146.386)"><path _ngcontent-ng-c628045383="" id="Path_34" data-name="Path 34" d="M494.259,158.48a9.109,9.109,0,0,1-3.669,7.282,9.478,9.478,0,0,1-4.672,1.961,9.1,9.1,0,0,1-6.865-1.783,9.55,9.55,0,0,1-3.362-4.648,9.119,9.119,0,0,1-.152-5.689,9.24,9.24,0,0,1,3.988-5.225,9.543,9.543,0,0,1,4.54-1.529,8.961,8.961,0,0,1,4.193.664,9.809,9.809,0,0,1,6,8.968Zm-18.137-.178a7.672,7.672,0,0,0,.325,2.214A8.712,8.712,0,0,0,480,165.448a8.108,8.108,0,0,0,6.373,1.234,8.556,8.556,0,0,0,5.145-3.163,7.932,7.932,0,0,0,1.555-6.972,8.665,8.665,0,0,0-2.974-4.823,8.127,8.127,0,0,0-6.13-1.919,8.889,8.889,0,0,0-6.366,3.685A8.115,8.115,0,0,0,476.122,158.3Z" fill="#2b2b2b"></path><path _ngcontent-ng-c628045383="" id="Path_35" data-name="Path 35" d="M490.4,171.8c-.352-.091-.746-.179-1.132-.293-.6-.175-1.188-.368-1.781-.553q-.087-.027-.171-.06a.541.541,0,0,1-.364-.529.529.529,0,0,1,.437-.47c.337-.066.68-.109,1.015-.183a8.662,8.662,0,0,0,4.09-2.1c.468-.432.864-.94,1.292-1.414.032-.036.059-.077.091-.113a.51.51,0,0,1,.9.445c-.056.247-.13.49-.2.734-.187.668-.332,1.352-.574,2a3.663,3.663,0,0,1-2.894,2.409C490.887,171.713,490.667,171.75,490.4,171.8Zm-.855-1.31a2.451,2.451,0,0,0,2.071-.044,2.656,2.656,0,0,0,1.552-2.018A11.188,11.188,0,0,1,489.543,170.49Z" transform="translate(-1.322 -1.534)" fill="#2b2b2b"></path><path _ngcontent-ng-c628045383="" id="Path_36" data-name="Path 36" d="M498.071,154.178a5.779,5.779,0,0,1-.288,1.406c-.131.477-.277.95-.419,1.424a1.656,1.656,0,0,1-.1.271.489.489,0,0,1-.5.295.466.466,0,0,1-.439-.35c-.082-.289-.126-.59-.2-.883a10.953,10.953,0,0,0-3.25-5.581c-.083-.079-.171-.153-.25-.237a.512.512,0,0,1-.09-.617.505.505,0,0,1,.559-.243c.289.064.575.141.859.225a12.164,12.164,0,0,1,1.6.5,4.055,4.055,0,0,1,2.365,2.973C497.986,153.632,498.024,153.906,498.071,154.178Zm-1.219.836a3.018,3.018,0,0,0-.419-2.618c-.421-.622-1.337-1.257-1.741-1.205A12.815,12.815,0,0,1,496.852,155.014Z" transform="translate(-1.322)" fill="#2b2b2b"></path><path _ngcontent-ng-c628045383="" id="Path_37" data-name="Path 37" d="M472.877,163.752a3.588,3.588,0,0,1,.269-1.366c.1-.36.214-.718.321-1.076a.529.529,0,0,1,1.054.056,9.065,9.065,0,0,0,3.831,6.086,1.435,1.435,0,0,1,.235.2.486.486,0,0,1,.07.587.5.5,0,0,1-.558.245c-.41-.1-.82-.209-1.223-.337a10.294,10.294,0,0,1-1.654-.575A4.18,4.18,0,0,1,472.877,163.752Zm3.184,3.054a10.246,10.246,0,0,1-2.093-3.472C473.511,164.423,474.853,166.646,476.061,166.806Z" transform="translate(0 -1.534)" fill="#2b2b2b"></path><path _ngcontent-ng-c628045383="" id="Path_38" data-name="Path 38" d="M480.531,146.386a7.731,7.731,0,0,1,2.917.771.547.547,0,0,1,.365.586.569.569,0,0,1-.543.454,9.258,9.258,0,0,0-4.715,1.976c-.469.376-.877.826-1.312,1.243-.022.021-.039.046-.059.069a.567.567,0,0,1-.654.225.552.552,0,0,1-.328-.607,5.032,5.032,0,0,1,1.474-3.518,3.884,3.884,0,0,1,1.833-1.014C479.844,146.488,480.19,146.446,480.531,146.386Zm.75,1.177a3.136,3.136,0,0,0-2.657.547,2.993,2.993,0,0,0-1.053,1.54A10.982,10.982,0,0,1,481.281,147.563Z" fill="#2b2b2b"></path><path _ngcontent-ng-c628045383="" id="Path_39" data-name="Path 39" d="M481.1,158.234a3.161,3.161,0,0,1,3.109,3.226,3.269,3.269,0,0,1-3.312,3.234,3.119,3.119,0,0,1-3.086-3.2A3.287,3.287,0,0,1,481.1,158.234Zm.011,1.018a2.263,2.263,0,0,0-2.273,2.211,2.1,2.1,0,0,0,2.04,2.211,2.248,2.248,0,0,0,2.3-2.154A2.143,2.143,0,0,0,481.109,159.252Z" transform="translate(-0.347 -0.959)" fill="#2b2b2b"></path><path _ngcontent-ng-c628045383="" id="Path_40" data-name="Path 40" d="M485.987,154.788a3.277,3.277,0,0,1-3.233,3.2,3.346,3.346,0,0,1-3.214-3.283,3.225,3.225,0,0,1,6.447.081Zm-1.027-.008a2.2,2.2,0,0,0-2.141-2.163,2.235,2.235,0,0,0-2.255,2.1,2.313,2.313,0,0,0,2.207,2.25A2.236,2.236,0,0,0,484.96,154.78Z" transform="translate(-0.47 -0.42)" fill="#2b2b2b"></path><path _ngcontent-ng-c628045383="" id="Path_41" data-name="Path 41" d="M484.585,163.363a3.282,3.282,0,0,1,3.016-3.146,3.226,3.226,0,0,1,3.295,3.158,3.156,3.156,0,0,1-3.031,3.171A3.358,3.358,0,0,1,484.585,163.363Zm3.273,2.157a1.756,1.756,0,0,0,.869-.219,2.128,2.128,0,0,0,.263-3.612,1.843,1.843,0,0,0-2.054-.272,2.17,2.17,0,0,0-1.318,1.876A2.289,2.289,0,0,0,487.858,165.52Z" transform="translate(-0.82 -1.112)" fill="#2b2b2b"></path><path _ngcontent-ng-c628045383="" id="Path_42" data-name="Path 42" d="M492.707,156.512a3.081,3.081,0,0,1-3.115,3,3.046,3.046,0,1,1,3.115-3Zm-5.208-.062a4.167,4.167,0,0,0,.07.463,2.117,2.117,0,0,0,2.884,1.4,2.035,2.035,0,0,0,1.238-1.9,2.1,2.1,0,0,0-4.192.035Z" transform="translate(-0.949 -0.559)" fill="#2b2b2b"></path><path _ngcontent-ng-c628045383="" id="Path_43" data-name="Path 43" d="M485.395,157.346a1.593,1.593,0,1,1-1.613,1.579A1.62,1.62,0,0,1,485.395,157.346Zm-.015,1.031a.564.564,0,1,0-.012,1.127.567.567,0,0,0,.566-.56A.557.557,0,0,0,485.38,158.377Z" transform="translate(-0.655 -0.756)" fill="#2b2b2b"></path></g></svg>