<svg _ngcontent-ng-c628045383="" xmlns="http://www.w3.org/2000/svg" width="23.88" height="19.168" viewBox="0 0 23.88 19.168"><g _ngcontent-ng-c628045383="" id="QIxWkI.tif" transform="translate(-428.312 -149.846)"><g _ngcontent-ng-c628045383="" id="Group_6" data-name="Group 6" transform="translate(428.312 149.846)"><path _ngcontent-ng-c628045383="" id="Path_49" data-name="Path 49" d="M437.788,158.531c.8-.793,1.594-1.572,2.383-2.352,1.583-1.564,3.176-3.119,4.745-4.7a5.662,5.662,0,0,1,1.557-1.243,3.962,3.962,0,0,1,5.615,2.886,4.144,4.144,0,0,1-.619,3.315,12.381,12.381,0,0,1-1.241,1.354q-2.007,2.1-4.021,4.2-2.067,2.159-4.136,4.316c-.46.482-.923.962-1.383,1.443a3.931,3.931,0,0,1-2.726,1.256A3.7,3.7,0,0,1,435.27,168c-.279-.251-.533-.533-.791-.807-1.67-1.777-3.345-3.548-5-5.336a4.358,4.358,0,0,1-.234-5.656,3.777,3.777,0,0,1,3.26-1.453,4.007,4.007,0,0,1,2.787,1.291c.792.806,1.6,1.6,2.394,2.4C437.711,158.467,437.742,158.491,437.788,158.531Zm-.011,9.24a2.393,2.393,0,0,0,1.48-.437,10.452,10.452,0,0,0,1.183-1.086q4.91-5.113,9.813-10.237a2.683,2.683,0,0,0,.756-2.03,2.834,2.834,0,0,0-1.627-2.622,2.67,2.67,0,0,0-3.026.406c-.254.2-.456.475-.691.706q-2.094,2.072-4.194,4.138-1.592,1.572-3.185,3.147a.615.615,0,0,1-.594.209.974.974,0,0,1-.424-.235c-.994-.975-1.969-1.97-2.968-2.94a2.755,2.755,0,0,0-3.669-.263,3.014,3.014,0,0,0-.426,4.317c.272.326.573.626.863.936q2.4,2.558,4.8,5.111A2.684,2.684,0,0,0,437.777,167.771Z" transform="translate(-428.312 -149.846)" fill="#2b2b2b"></path></g></g></svg>