<svg _ngcontent-ng-c628045383="" xmlns="http://www.w3.org/2000/svg" width="23.88" height="23.88" viewBox="0 0 23.88 23.88"><g _ngcontent-ng-c628045383="" id="OKCjjT.tif" transform="translate(-381.735 -148.074)"><g _ngcontent-ng-c628045383="" id="Group_9" data-name="Group 9" transform="translate(381.735 148.074)"><path _ngcontent-ng-c628045383="" id="Path_53" data-name="Path 53" d="M381.735,159.265c.03-.175.067-.349.088-.525a11.78,11.78,0,0,1,2.99-6.595,11.984,11.984,0,0,1,4.7-3.254,11.469,11.469,0,0,1,3.234-.738c.241-.018.482-.082.721-.08a11.589,11.589,0,0,1,7.806,2.907,12.606,12.606,0,0,1,4.178,7.225,10.508,10.508,0,0,1-.138,4.358,18.881,18.881,0,0,1-1.3,3.721,2.314,2.314,0,0,1-.215.4,1.571,1.571,0,0,0-.078,1.739,3.993,3.993,0,0,0,.964,1.293.805.805,0,0,1,.294.7.593.593,0,0,1-.582.605,8.759,8.759,0,0,1-3.237-.461q-.354-.123-.7-.269a.8.8,0,0,0-.72.04,15.373,15.373,0,0,1-6.618,1.621,10.654,10.654,0,0,1-5.49-1.688,12.585,12.585,0,0,1-4.227-4.225,11.277,11.277,0,0,1-1.61-4.917,1.468,1.468,0,0,0-.056-.228Zm20.908,10.27.034-.053-.111-.22a3.34,3.34,0,0,1-.3-2.611,7.112,7.112,0,0,1,.424-.872,18.3,18.3,0,0,0,1.272-3.478,8.741,8.741,0,0,0-.326-5.5,11.712,11.712,0,0,0-4.249-5.492,9.832,9.832,0,0,0-5.158-1.822,9.556,9.556,0,0,0-4.779.962,10.81,10.81,0,0,0-6.1,7.5,9.348,9.348,0,0,0,.66,6.222,11.024,11.024,0,0,0,4.236,4.8,8.992,8.992,0,0,0,6,1.554,13.483,13.483,0,0,0,4.648-1.357,2.465,2.465,0,0,1,1.792-.251c.386.1.755.265,1.136.387C402.09,169.4,402.368,169.46,402.643,169.535Z" transform="translate(-381.735 -148.074)" fill="#2b2b2b"></path><path _ngcontent-ng-c628045383="" id="Path_54" data-name="Path 54" d="M393.529,158.721q2.707,0,5.412,0a1.446,1.446,0,0,1,.39.038c.321.091.453.342.407.728a.571.571,0,0,1-.55.479,2.348,2.348,0,0,1-.291.011H388.01q-.721-.018-.713-.649c0-.391.25-.6.716-.606,1.554,0,3.108,0,4.663,0Z" transform="translate(-381.735 -147.313)" fill="#2b2b2b"></path><path _ngcontent-ng-c628045383="" id="Path_55" data-name="Path 55" d="M390.353,162.21c-.762,0-1.525,0-2.287,0a.578.578,0,0,1-.654-.684.54.54,0,0,1,.506-.564,1.768,1.768,0,0,1,.241-.012h4.407c.05,0,.1,0,.149,0a.582.582,0,0,1,.609.678.56.56,0,0,1-.628.58C391.915,162.213,391.134,162.209,390.353,162.21Z" transform="translate(-381.286 -147.154)" fill="#2b2b2b"></path><path _ngcontent-ng-c628045383="" id="Path_56" data-name="Path 56" d="M395.462,157.579h-2.1c-.068,0-.136,0-.2,0a.543.543,0,0,1-.549-.561c-.01-.408.167-.639.523-.68a2.152,2.152,0,0,1,.241-.008q2.076,0,4.151,0c.068,0,.137,0,.205,0a.576.576,0,0,1,.586.662.547.547,0,0,1-.6.588c-.751.007-1.5,0-2.252,0Z" transform="translate(-380.887 -147.484)" fill="#2b2b2b"></path></g></g></svg>