<svg _ngcontent-ng-c628045383="" xmlns="http://www.w3.org/2000/svg" width="23.88" height="23.88" viewBox="0 0 23.88 23.88"><g _ngcontent-ng-c628045383="" id="_3MiWB2.tif" data-name="3MiWB2.tif" transform="translate(-935.176 -148.266)"><g _ngcontent-ng-c628045383="" id="Group_3" data-name="Group 3"><path _ngcontent-ng-c628045383="" id="Path_44" data-name="Path 44" d="M935.176,159.936c.057-1.522.091-3.045.177-4.565a19.966,19.966,0,0,1,.3-2.8,4.359,4.359,0,0,1,3.759-3.581c1.161-.226,2.346-.346,3.523-.477a46.37,46.37,0,0,1,6.527-.222,29.134,29.134,0,0,1,4.7.451,5.642,5.642,0,0,1,2.675,1.187,4.666,4.666,0,0,1,1.7,3.194c.109,1.169.26,2.333.369,3.5.065.707.118,1.418.125,2.127.016,1.758.036,3.516-.007,5.272a20.916,20.916,0,0,1-.27,3.3,5.138,5.138,0,0,1-3.77,4.15,9.825,9.825,0,0,1-1.7.269,50.194,50.194,0,0,1-7.221.4,39.912,39.912,0,0,1-5.4-.389,5.714,5.714,0,0,1-4.936-4.229,8.757,8.757,0,0,1-.231-1.655C935.3,163.9,935.223,161.918,935.176,159.936Zm22.4,1.533a61.046,61.046,0,0,0-.565-8.337,3.221,3.221,0,0,0-1.454-2.292,4.73,4.73,0,0,0-1.891-.686,28.116,28.116,0,0,0-4.241-.386,49.632,49.632,0,0,0-9.472.608,3.107,3.107,0,0,0-2.888,2.848c-.146,1.471-.253,2.947-.307,4.423a59.332,59.332,0,0,0,.259,8.119,9.4,9.4,0,0,0,.161,1.3A4.38,4.38,0,0,0,940.9,170.3a49.757,49.757,0,0,0,5.09.363,50.716,50.716,0,0,0,7.356-.412,6.225,6.225,0,0,0,1.4-.256,3.741,3.741,0,0,0,2.581-3.232A44.824,44.824,0,0,0,957.577,161.469Z" transform="translate(0)" fill="#2b2b2b"></path><path _ngcontent-ng-c628045383="" id="Path_45" data-name="Path 45" d="M947.032,166.874a6.9,6.9,0,0,1-4.584-1.5A6.106,6.106,0,0,1,940.1,161.6a6.372,6.372,0,0,1,2.409-6.449,6.6,6.6,0,0,1,3.116-1.325,7.475,7.475,0,0,1,5.538,1.189,6.5,6.5,0,0,1,2.505,3.291,6.612,6.612,0,0,1,.265,2.871,5.934,5.934,0,0,1-1.125,2.9,6.608,6.608,0,0,1-4.037,2.626c-.565.124-1.154.154-1.732.228Zm-.12-1.584a5.17,5.17,0,0,0,2.25-.547,5.514,5.514,0,0,0,2.768-2.955,3.558,3.558,0,0,0,.111-2.566,5.63,5.63,0,0,0-2.62-3.156,4.606,4.606,0,0,0-4.14-.4,5.545,5.545,0,0,0-3.174,2.995,3.63,3.63,0,0,0-.2,2.711,5.578,5.578,0,0,0,1.757,2.6A5.5,5.5,0,0,0,946.911,165.29Z" transform="translate(0 0)" fill="#2b2b2b"></path><path _ngcontent-ng-c628045383="" id="Path_46" data-name="Path 46" d="M952.13,154.349a1.317,1.317,0,0,1-1.39-1.4,1.4,1.4,0,1,1,2.795.005A1.284,1.284,0,0,1,952.13,154.349Z" transform="translate(1.625)" fill="#2b2b2b"></path></g></g></svg>