<svg _ngcontent-ng-c628045383="" xmlns="http://www.w3.org/2000/svg" width="23.88" height="23.884" viewBox="0 0 23.88 23.884"><g _ngcontent-ng-c628045383="" id="Pvlm7g.tif" transform="translate(-983.363 -147.224)"><g _ngcontent-ng-c628045383="" id="Group_8" data-name="Group 8" transform="translate(983.363 147.224)"><path _ngcontent-ng-c628045383="" id="Path_52" data-name="Path 52" d="M1007.182,154.816c-.008.982-.027,1.964-.021,2.946q.02,2.613.065,5.225a3.708,3.708,0,0,1-.809,2.436,3.526,3.526,0,0,1-1.1.963c-1.1.586-2.217,1.154-3.327,1.728q-2.389,1.237-4.78,2.472a4.673,4.673,0,0,1-1.747.511,3.59,3.59,0,0,1-1.822-.36c-.421-.195-.8-.458-1.213-.677q-3.541-1.9-7.089-3.784a3.437,3.437,0,0,1-1.921-2.424,2.63,2.63,0,0,1-.044-.523c0-2.844-.014-5.688,0-8.533a2.767,2.767,0,0,1,1.6-2.526c1.442-.781,2.89-1.554,4.335-2.331q1.785-.961,3.567-1.924a10.741,10.741,0,0,1,1.078-.55,3.315,3.315,0,0,1,2.872.193c1.332.7,2.654,1.409,3.983,2.111q2.021,1.068,4.048,2.126c.159.084.333.143.5.219a2.927,2.927,0,0,1,1.887,2.694Zm-6.678,4.309c-.027-.848-.058-1.7-.078-2.543a.319.319,0,0,0-.2-.306q-2.339-1.233-4.668-2.477a.319.319,0,0,0-.339,0c-.488.254-.982.5-1.472.744-1.187.6-2.376,1.194-3.56,1.8a.283.283,0,0,0-.13.211c.006,1.634.03,3.267.028,4.9a.566.566,0,0,0,.363.58c1.519.795,3.023,1.612,4.532,2.424a.324.324,0,0,0,.353.019c.409-.22.829-.421,1.245-.629q1.928-.967,3.857-1.934a.221.221,0,0,0,.153-.224C1000.553,160.831,1000.53,159.978,1000.5,159.125Zm-16.083.85c-.01.081-.02.124-.02.167,0,1.08-.01,2.16.008,3.24a3.593,3.593,0,0,0,.152.728c.028.121.1.118.2.063l3.713-2a.8.8,0,0,0,.108-.089Zm15.6,8.054-4.245-2.127a.916.916,0,0,0-.029.141q.02,1.941.038,3.883c0,.122.059.149.174.108a4.408,4.408,0,0,0,.532-.19c1.141-.582,2.276-1.172,3.413-1.759C999.926,168.074,999.949,168.064,1000.022,168.029Zm-3.667-2.989-.005.057,4.188,2.1v-4.257ZM990.2,151.073l-.126,4.222,4.263-2.142Zm11.407,11.814V167.2a1.164,1.164,0,0,0,.118-.045c.877-.447,1.76-.884,2.625-1.348a10.247,10.247,0,0,0,.962-.649c.132-.092.125-.162-.029-.247-.842-.457-1.677-.925-2.515-1.388C1002.4,163.316,1002.028,163.117,1001.605,162.887Zm-10.925,5.126c.124.069.2.113.278.155.886.491,1.766.988,2.658,1.467.3.161.631.275.949.407.141.059.181.007.18-.127-.016-1.278-.026-2.556-.039-3.834,0-.052-.013-.1-.023-.184Zm14.936-8.789-4.14-2.254.136,4.281ZM989,161.207v-4.254l-4.064,2.192Zm17.131-2.813c0-.107,0-.166,0-.225-.012-.83-.026-1.661-.033-2.492,0-.151.044-.3.048-.453a7.164,7.164,0,0,0,0-.824c-.016-.2-.047-.2-.239-.111l-3.731,1.787c-.039.019-.073.049-.137.091ZM994.81,152.3c.008-.085.016-.128.016-.172,0-1.243,0-2.486,0-3.729,0-.154-.052-.179-.209-.146a3.927,3.927,0,0,0-1.079.5c-.864.478-1.739.939-2.609,1.408-.045.024-.084.055-.154.1Zm-10.4,6.015,4.07-2.191-3.967-2a2.924,2.924,0,0,0-.1.505C984.407,155.845,984.41,157.058,984.41,158.32Zm17.056-2.992c.085-.035.145-.057.2-.085q1.84-.88,3.682-1.764c.219-.1.233-.118.027-.233-.329-.184-.68-.337-1.015-.513q-1.379-.722-2.754-1.449a1.008,1.008,0,0,0-.142-.046Zm.7,6.734c.064.044.083.058.1.069q1.78.985,3.558,1.972c.136.076.2.033.218-.084a5.762,5.762,0,0,0,.142-.936c.007-.95-.02-1.9-.035-2.849,0-.048-.013-.095-.024-.173Zm-12.016.9v4.225l3.967-2.1Zm-.988-11.837c-1.37.749-2.7,1.449-4.02,2.172l.019.06,3.874,1.95Zm11.229,4.13v-4.131l-3.966,2.033Zm-11.313,7.7-3.826,2.054v.065c1.24.734,2.542,1.373,3.827,2.084Zm10.719-12.628-3.908-2.058v4.064Z" transform="translate(-983.363 -147.224)" fill="#2b2b2b"></path></g></g></svg>