<svg _ngcontent-ng-c628045383="" xmlns="http://www.w3.org/2000/svg" width="23.88" height="23.88" viewBox="0 0 23.88 23.88"><g _ngcontent-ng-c628045383="" id="Group_7" data-name="Group 7" transform="translate(-840.378 -146.921)"><path _ngcontent-ng-c628045383="" id="Path_50" data-name="Path 50" d="M840.378,158.543c.048-.355.093-.711.144-1.065a13.084,13.084,0,0,1,1.707-4.828,12.23,12.23,0,0,1,3-3.467,10.166,10.166,0,0,1,4.515-2.042,11.324,11.324,0,0,1,2.048-.22,15.026,15.026,0,0,1,2.085.238.492.492,0,0,1,.421.517.547.547,0,0,1-.46.513c-.565.145-1.138.263-1.69.445a6.638,6.638,0,0,0-3.006,1.85,4.488,4.488,0,0,0-1.071,2.334,9.244,9.244,0,0,0,.34,3.844,21.4,21.4,0,0,0,1.368,3.514,5.21,5.21,0,0,1,.562,2.461,4.763,4.763,0,0,1-1.127,2.818,4.665,4.665,0,0,1-2.4,1.649,3.559,3.559,0,0,1-3.494-.9,8.153,8.153,0,0,1-1.578-2.035,9.43,9.43,0,0,1-1.165-3.023c-.06-.322-.092-.65-.139-.975-.018-.122-.042-.243-.064-.364Zm10.228-10.429-.016-.052c-.112.015-.224.028-.335.046a9.414,9.414,0,0,0-4.136,1.717A10.871,10.871,0,0,0,843.5,152.6a12.03,12.03,0,0,0-2.036,5.874,8.611,8.611,0,0,0,1.234,5.255,6.968,6.968,0,0,0,1.434,1.793,2.526,2.526,0,0,0,2.992.338,4.1,4.1,0,0,0,1.7-1.693,3.305,3.305,0,0,0,.443-2.145,5.859,5.859,0,0,0-.466-1.467c-.332-.767-.69-1.526-.982-2.309a12.072,12.072,0,0,1-.861-4.875,5.821,5.821,0,0,1,.886-2.9,6.439,6.439,0,0,1,2.579-2.246C850.489,148.188,850.547,148.149,850.606,148.114Z" fill="#2b2b2b"></path><path _ngcontent-ng-c628045383="" id="Path_51" data-name="Path 51" d="M864.376,159.173a11.17,11.17,0,0,1-2.052,6.331.6.6,0,0,0-.089.357c.054.807.121,1.614.185,2.42.022.283.046.566.068.849.039.491-.233.759-.719.682-1.035-.164-2.069-.339-3.1-.514a.621.621,0,0,0-.427.06,11.672,11.672,0,0,1-5.915,1.438,12.66,12.66,0,0,1-4.964-1.169,1.369,1.369,0,0,1-.24-.139.513.513,0,0,1,.381-.923,1.05,1.05,0,0,1,.282.087,8.354,8.354,0,0,0,4.547.759,7.765,7.765,0,0,0,4.727-2.288,8.033,8.033,0,0,0,2.408-5.05,8.534,8.534,0,0,0-.718-4.232,7.663,7.663,0,0,0-2.117-2.915c-.452-.376-.929-.723-1.37-1.111a5.829,5.829,0,0,1-1.49-1.99,2.616,2.616,0,0,1,1.2-3.482,2.941,2.941,0,0,1,2.171-.2,7.88,7.88,0,0,1,2.672,1.348,9.859,9.859,0,0,1,2.969,3.582,13.8,13.8,0,0,1,1.386,4.13C864.277,157.855,864.31,158.516,864.376,159.173Zm-7.922,9.817.021.038a1.823,1.823,0,0,0,.184-.066c.412-.2.827-.4,1.233-.607a1.017,1.017,0,0,1,.678-.126c.385.069.771.128,1.156.193.5.083,1,.167,1.505.251.093.016.179.029.168-.115-.078-.929-.149-1.858-.234-2.787a.971.971,0,0,1,.178-.7,10.463,10.463,0,0,0,1.467-2.858,9.769,9.769,0,0,0,.406-4.353,12.839,12.839,0,0,0-.967-3.469,9.182,9.182,0,0,0-3.619-4.442,6.186,6.186,0,0,0-1.9-.834,1.77,1.77,0,0,0-2.134,1.21,1.8,1.8,0,0,0,.282,1.378,6.663,6.663,0,0,0,2,2.09,7.969,7.969,0,0,1,1.777,1.778,9.968,9.968,0,0,1,1.7,3.914,8.785,8.785,0,0,1-.046,3.915,9.287,9.287,0,0,1-3.723,5.476C856.541,168.914,856.5,168.954,856.454,168.991Z" transform="translate(-0.118)" fill="#2b2b2b"></path></g></svg>