<svg _ngcontent-ng-c628045383="" xmlns="http://www.w3.org/2000/svg" width="23.88" height="20.467" viewBox="0 0 23.88 20.467"><g _ngcontent-ng-c628045383="" id="HaVX2g.tif" transform="translate(-333.791 -148.364)"><g _ngcontent-ng-c628045383="" id="Group_5" data-name="Group 5" transform="translate(333.791 148.364)"><path _ngcontent-ng-c628045383="" id="Path_48" data-name="Path 48" d="M352.234,168.83a.15.15,0,0,0-.044-.027,3.477,3.477,0,0,1-1.458-.824q-2.079-1.578-4.153-3.16a.185.185,0,0,0-.292.019q-1.359,1.292-2.726,2.58c-.3.283-.526.356-.775.223a.672.672,0,0,1-.314-.733c.058-.905.1-1.811.16-2.717.048-.813.1-1.626.154-2.439a.862.862,0,0,1,.3-.574q.973-.941,1.947-1.88,1.474-1.425,2.945-2.852c.227-.219.457-.433.684-.65.052-.049.1-.1.146-.156l-.029-.037c-.048.025-.1.048-.143.076l-5.433,3.329c-.858.526-1.72,1.046-2.572,1.582a.933.933,0,0,1-.923.081c-1.285-.518-2.577-1.017-3.865-1.521-.433-.17-.879-.308-1.3-.506a1.679,1.679,0,0,1-.557-.46.8.8,0,0,1,.089-1.133,3.879,3.879,0,0,1,1.22-.77c.828-.355,1.669-.682,2.51-1.005,1.781-.687,3.565-1.364,5.35-2.044l7-2.667q2.268-.864,4.533-1.732c.146-.056.272-.161.42-.214a2.534,2.534,0,0,1,.856-.253,1.673,1.673,0,0,1,1.5.889,2.086,2.086,0,0,1,.127,1.511q-.413,1.945-.819,3.893-.448,2.126-.9,4.252-.59,2.8-1.173,5.6c-.2.974-.388,1.951-.605,2.92a1.69,1.69,0,0,1-1.27,1.31c-.083.023-.161.059-.243.089Zm-17.152-11.2v.08c.151.063.3.13.458.189,1.386.529,2.776,1.046,4.155,1.591a.723.723,0,0,0,.734-.06c1.933-1.2,3.874-2.388,5.813-3.577q2.823-1.727,5.646-3.449c.269-.164.531-.337.81-.481a.515.515,0,0,1,.648.138.537.537,0,0,1,.029.664,1.6,1.6,0,0,1-.2.223q-2.184,2.109-4.37,4.219-2.246,2.171-4.49,4.343c-.106.1-.1.152.013.239q1.354,1.015,2.7,2.042,1.878,1.424,3.753,2.85c.412.313.816.639,1.245.929a.639.639,0,0,0,1.01-.444c.187-.941.374-1.882.571-2.821q.536-2.553,1.078-5.1.593-2.808,1.18-5.619c.233-1.116.468-2.232.7-3.349a.6.6,0,0,0-.267-.655.621.621,0,0,0-.707.025,3.136,3.136,0,0,1-.462.24c-.65.255-1.3.5-1.956.749q-4.494,1.714-8.987,3.427-2.962,1.128-5.92,2.26c-.745.286-1.491.565-2.229.869C335.71,157.278,335.4,157.465,335.082,157.628Zm8.812,4.948-.065.015-.187,3.208a1.852,1.852,0,0,0,.159-.117c.578-.546,1.154-1.1,1.735-1.639.095-.089.108-.14-.008-.225-.407-.3-.808-.609-1.209-.915C344.177,162.8,344.035,162.685,343.894,162.577Z" transform="translate(-333.79 -148.363)" fill="#2b2b2b"></path></g></g></svg>